<svg version="1.2" xmlns="http://www.w3.org/2000/svg" viewBox="0 0 261 261" width="261" height="261">
	<style>
		.s0 { fill: #4c4c4c } 
		.s1 { fill: #898989 } 
		.s2 { fill: #ec1c24 } 
	</style>
	<g id="Layer 1">
		<g id="&lt;Group&gt;">
			<g id="&lt;Group&gt;">
				<path id="&lt;Compound Path&gt;" class="s0" d="m25.67 562.18l1.57 7.89c0.33 1.73 0.66 3.46 0.86 5.13h0.13c0.24-1.67 0.64-3.53 1-5.06l1.87-7.96h1.96l1.76 7.72c0.4 1.8 0.77 3.5 1.03 5.3h0.14c0.2-1.7 0.5-3.37 0.86-5.2l1.53-7.82h2.57l-4.06 16.11h-2.1l-1.86-7.82c-0.4-1.56-0.64-3-0.9-4.83h-0.07c-0.26 1.9-0.56 3.4-0.93 4.93l-1.93 7.72h-2.16l-3.93-16.11z"/>
				<path id="&lt;Compound Path&gt;" class="s0" d="m46.84 562.18l1.56 7.89c0.33 1.73 0.67 3.46 0.87 5.13h0.13c0.23-1.67 0.63-3.53 1-5.06l1.86-7.96h1.96l1.77 7.72c0.4 1.8 0.76 3.5 1.03 5.3h0.13c0.2-1.7 0.5-3.37 0.87-5.2l1.53-7.82h2.56l-4.06 16.11h-2.1l-1.86-7.82c-0.4-1.56-0.63-3-0.9-4.83h-0.06c-0.27 1.9-0.57 3.4-0.94 4.93l-1.93 7.72h-2.16l-3.93-16.11z"/>
				<path id="&lt;Compound Path&gt;" class="s0" d="m68 562.18l1.56 7.89c0.34 1.73 0.67 3.46 0.87 5.13h0.13c0.24-1.67 0.63-3.53 1-5.06l1.86-7.96h1.97l1.76 7.72c0.4 1.8 0.77 3.5 1.03 5.3h0.13c0.2-1.7 0.5-3.37 0.87-5.2l1.53-7.82h2.56l-4.06 16.11h-2.09l-1.87-7.82c-0.4-1.56-0.63-3-0.89-4.83h-0.07c-0.27 1.9-0.57 3.4-0.93 4.93l-1.93 7.72h-2.16l-3.93-16.11z"/>
				<path id="&lt;Compound Path&gt;" fill-rule="evenodd" class="s0" d="m87.3 578.56c-0.94 0-1.7-0.87-1.7-1.93 0-1.07 0.76-1.93 1.7-1.93 0.94 0 1.7 0.86 1.7 1.93 0 1.06-0.76 1.93-1.7 1.93z"/>
				<path id="&lt;Compound Path&gt;" fill-rule="evenodd" class="s0" d="m96.45 555.26v23.03h-2.56v-23.03z"/>
				<path id="&lt;Compound Path&gt;" fill-rule="evenodd" class="s0" d="m111.79 570.24c0 6.22-2.86 8.32-5.36 8.32-2.89 0-5.22-2.63-5.22-8.29 0-5.86 2.63-8.32 5.39-8.32 2.9 0 5.19 2.7 5.19 8.29zm-8.02 0c0 2.66 0.47 6.29 2.8 6.29 2.19 0 2.66-3.76 2.66-6.29 0-2.47-0.47-6.26-2.73-6.26-2.29 0-2.73 3.79-2.73 6.26z"/>
				<path id="&lt;Compound Path&gt;" fill-rule="evenodd" class="s0" d="m126.04 576.23c0 4.22-0.54 5.82-1.6 7.02-0.97 1.06-2.47 1.69-4.3 1.69-1.36 0-2.69-0.33-3.52-0.79l0.6-2c0.63 0.33 1.69 0.7 2.99 0.7 2.03 0 3.3-1.27 3.3-4.93v-1.63h-0.07c-0.53 1.27-1.73 1.97-3.1 1.97-2.86 0-4.72-3.23-4.72-7.96 0-5.92 2.69-8.35 5.09-8.35 1.7 0 2.5 1.13 3 2.03h0.06l0.14-1.8h2.26c-0.04 1.1-0.13 2.53-0.13 5.03zm-2.53-8.49c0-0.39-0.04-0.83-0.14-1.16-0.26-1.1-0.86-2.43-2.33-2.43-1.86 0-2.86 2.5-2.86 6.06 0 4.09 1.3 5.95 2.86 5.95 0.8 0 1.8-0.36 2.3-2.29 0.13-0.5 0.17-1 0.17-1.47z"/>
				<path id="&lt;Compound Path&gt;" fill-rule="evenodd" class="s0" d="m141.14 570.24c0 6.22-2.86 8.32-5.36 8.32-2.89 0-5.22-2.63-5.22-8.29 0-5.86 2.63-8.32 5.39-8.32 2.89 0 5.19 2.7 5.19 8.29zm-8.02 0c0 2.66 0.47 6.29 2.8 6.29 2.19 0 2.66-3.76 2.66-6.29 0-2.47-0.47-6.26-2.73-6.26-2.29 0-2.73 3.79-2.73 6.26z"/>
				<path id="&lt;Compound Path&gt;" fill-rule="evenodd" class="s0" d="m147.47 570.47c0 4.96 1.96 5.99 3.79 5.99 1.13 0 2.03-0.27 2.66-0.6l0.43 1.86c-0.9 0.47-2.26 0.77-3.56 0.77-3.86 0-5.85-3.16-5.85-8.09 0-5.19 2.23-8.45 5.45-8.45 3.26 0 4.59 3.46 4.59 7.06 0 0.63-0.03 1.06-0.06 1.46zm5.05-1.9c0.04-3.19-1.16-4.62-2.39-4.62-1.7 0-2.53 2.43-2.63 4.62z"/>
				<path id="&lt;Compound Path&gt;" fill-rule="evenodd" class="s0" d="m159.38 567.21c0-2.46-0.1-3.89-0.13-5.03h2.26l0.13 2.07h0.07c0.9-1.7 2.16-2.3 3.42-2.3 2.83 0 4.66 2.96 4.66 8.25 0 5.99-2.46 8.36-4.99 8.36-1.53 0-2.39-0.97-2.83-1.87h-0.06v7.99h-2.53zm2.53 5.19c0 0.46 0.03 0.93 0.13 1.33 0.5 2.3 1.66 2.69 2.36 2.69 2.13 0 2.83-2.92 2.83-6.15 0-3.33-0.8-6.12-2.86-6.12-1.17 0-2.23 1.43-2.36 2.89-0.07 0.37-0.1 0.8-0.1 1.23z"/>
				<path id="&lt;Compound Path&gt;" class="s0" d="m173.92 575.63c0.57 0.36 1.56 0.83 2.6 0.83 1.43 0 2.36-0.9 2.36-2.33 0-1.23-0.43-2.06-2.07-3.16-2.09-1.33-3.22-2.73-3.22-4.56 0-2.63 1.93-4.46 4.42-4.46 1.27 0 2.2 0.43 2.87 0.83l-0.67 1.93c-0.63-0.43-1.3-0.73-2.16-0.73-1.37 0-2.07 1-2.07 2.07 0 1.06 0.4 1.66 2 2.76 1.86 1.19 3.33 2.66 3.33 4.89 0 3.23-2.2 4.79-4.86 4.79-1.16 0-2.46-0.37-3.16-0.93z"/>
				<path id="&lt;Compound Path&gt;" fill-rule="evenodd" class="s0" d="m186.73 578.56c-0.94 0-1.7-0.87-1.7-1.93 0-1.07 0.76-1.93 1.7-1.93 0.94 0 1.7 0.86 1.7 1.93 0 1.06-0.76 1.93-1.7 1.93z"/>
				<path id="&lt;Compound Path&gt;" class="s0" d="m201.17 577.89c-0.56 0.33-1.53 0.6-2.66 0.6-3.52 0-5.89-2.83-5.89-8.15 0-4.63 2.33-8.39 6.36-8.39 0.86 0 1.79 0.23 2.26 0.5l-0.5 2.1c-0.33-0.17-1-0.44-1.83-0.44-2.59 0-3.73 3.07-3.73 6.23 0 3.76 1.43 6.02 3.8 6.02q0.99 0.01 1.83-0.43z"/>
				<path id="&lt;Compound Path&gt;" fill-rule="evenodd" class="s0" d="m214.72 570.24c0 6.22-2.86 8.32-5.36 8.32-2.89 0-5.22-2.63-5.22-8.29 0-5.86 2.62-8.32 5.39-8.32 2.89 0 5.19 2.7 5.19 8.29zm-8.02 0c0 2.66 0.46 6.29 2.79 6.29 2.2 0 2.66-3.76 2.66-6.29 0-2.47-0.46-6.26-2.72-6.26-2.3 0-2.73 3.79-2.73 6.26z"/>
				<path id="&lt;Compound Path&gt;" class="s0" d="m219.24 566.34c0-1.89-0.1-2.86-0.13-4.16h2.23l0.13 2h0.07c0.7-1.3 1.93-2.23 3.63-2.23 1.49 0 2.76 0.7 3.36 2.46h0.06c0.43-0.79 1-1.46 1.6-1.83 0.63-0.43 1.4-0.63 2.23-0.63 2.16 0 3.86 1.57 3.86 5.69v10.65h-2.53v-10.08c0-2.1-0.3-4.13-2.26-4.13-1.07 0-2 0.9-2.36 2.43-0.07 0.4-0.11 0.9-0.11 1.43v10.35h-2.52v-10.55c0-1.76-0.3-3.66-2.23-3.66-1.07 0-2.1 0.9-2.4 2.63q-0.1 0.61-0.1 1.36v10.22h-2.53z"/>
			</g>
			<g id="&lt;Group&gt;">
				<path id="&lt;Compound Path&gt;" class="s1" d="m-220.96 547.32v-1.44l1.55-2.12c2.24-3.1 4.85-6.6 4.85-10.11 0-2.07-0.89-3.33-2.64-3.33-1.35 0-2.24 0.72-2.7 1.04l-0.55-1.67c0.64-0.55 1.96-1.26 3.65-1.26 3.1 0 4.42 2.29 4.42 5.11 0 3.5-2.27 6.89-4.59 10.05l-1.24 1.72v0.06h6.21v1.95z"/>
				<path id="&lt;Compound Path&gt;" fill-rule="evenodd" class="s1" d="m-199.14 537.96c0 6.8-2.16 9.59-4.85 9.59-2.91 0-4.66-3.45-4.66-9.53 0-6.29 1.87-9.59 4.91-9.59 3.02 0 4.6 3.59 4.6 9.53zm-2.21 0.03c0-4.24-1.14-7.67-2.54-7.67-1.41 0-2.55 3.43-2.55 7.67 0 4.24 1.14 7.66 2.55 7.66 1.4 0 2.54-3.42 2.54-7.66z"/>
				<path id="&lt;Compound Path&gt;" fill-rule="evenodd" class="s1" d="m-186.65 537.96c0 6.8-2.16 9.59-4.86 9.59-2.9 0-4.65-3.45-4.65-9.53 0-6.29 1.87-9.59 4.91-9.59 3.02 0 4.6 3.59 4.6 9.53zm-2.21 0.03c0-4.24-1.14-7.67-2.55-7.67-1.4 0-2.54 3.43-2.54 7.67 0 4.24 1.14 7.66 2.54 7.66 1.41 0 2.55-3.42 2.55-7.66z"/>
				<path id="&lt;Compound Path&gt;" class="s1" d="m-183.96 550.94c0.61-1.67 1.38-4.71 1.67-6.69l2.5-0.29c-0.66 2.33-1.87 5.51-2.65 6.78z"/>
				<path id="&lt;Compound Path&gt;" fill-rule="evenodd" class="s1" d="m-167.16 537.96c0 6.8-2.15 9.59-4.85 9.59-2.9 0-4.66-3.45-4.66-9.53 0-6.29 1.87-9.59 4.92-9.59 3.01 0 4.59 3.59 4.59 9.53zm-2.21 0.03c0-4.24-1.14-7.67-2.54-7.67-1.41 0-2.54 3.43-2.54 7.67 0 4.24 1.13 7.66 2.54 7.66 1.4 0 2.54-3.42 2.54-7.66z"/>
				<path id="&lt;Compound Path&gt;" fill-rule="evenodd" class="s1" d="m-154.67 537.96c0 6.8-2.15 9.59-4.85 9.59-2.9 0-4.66-3.45-4.66-9.53 0-6.29 1.87-9.59 4.91-9.59 3.02 0 4.6 3.59 4.6 9.53zm-2.21 0.03c0-4.24-1.14-7.67-2.54-7.67-1.41 0-2.55 3.43-2.55 7.67 0 4.24 1.14 7.66 2.55 7.66 1.4 0 2.54-3.42 2.54-7.66z"/>
				<path id="&lt;Compound Path&gt;" fill-rule="evenodd" class="s1" d="m-142.18 537.96c0 6.8-2.16 9.59-4.85 9.59-2.91 0-4.66-3.45-4.66-9.53 0-6.29 1.87-9.59 4.91-9.59 3.02 0 4.6 3.59 4.6 9.53zm-2.21 0.03c0-4.24-1.14-7.67-2.54-7.67-1.41 0-2.55 3.43-2.55 7.67 0 4.24 1.14 7.66 2.55 7.66 1.4 0 2.54-3.42 2.54-7.66z"/>
				<path id="&lt;Compound Path&gt;" class="s1" d="m-130.58 532.02v6.83h6.6v1.58h-6.6v6.89h-1.64v-6.89h-6.58v-1.58h6.58v-6.83z"/>
				<path id="&lt;Compound Path&gt;" fill-rule="evenodd" class="s1" d="m-113.96 527.45h2.18v7.64h0.06c0.72-1.38 1.75-1.87 2.95-1.87 2.19 0 3.79 2.47 3.79 7.04 0 4.99-2.06 7.29-4.22 7.29-1.46 0-2.21-0.86-2.75-2.04h-0.12l-0.14 1.81h-1.87c0.03-0.8 0.12-2.38 0.12-3.33zm2.18 14.99q0 0.47 0.09 0.86c0.51 2.04 1.46 2.41 2.09 2.41 1.78 0 2.41-2.41 2.41-5.37 0-2.78-0.66-5.22-2.47-5.22-1.03 0-1.86 1.26-2.06 2.47q-0.05 0.47-0.06 0.94z"/>
				<path id="&lt;Compound Path&gt;" class="s1" d="m-101.07 537.01c0-1.17-0.09-2.55-0.12-3.59h1.98l0.12 2.21h0.06c0.46-1.32 1.63-2.41 2.93-2.41q0.25-0.01 0.45 0.03v2.24q-0.2 0-0.45 0c-1.41 0-2.44 1.29-2.68 2.87q-0.08 0.57-0.08 1.27v7.69h-2.21z"/>
				<path id="&lt;Compound Path&gt;" fill-rule="evenodd" class="s1" d="m-85.34 544.16c0 1.06 0.03 2.27 0.14 3.16h-1.98l-0.14-1.46h-0.09c-0.6 1.06-1.58 1.69-2.78 1.69-1.84 0-3.27-1.55-3.27-3.96 0-3.51 2.78-5.03 5.91-5.06v-0.43c0-1.86-0.49-3.13-2.21-3.13q-1.3 0.02-2.3 0.72l-0.49-1.55c0.61-0.43 1.87-0.92 3.25-0.92 2.78 0 3.96 1.81 3.96 4.91zm-2.15-4.05c-1.15 0-3.82 0.23-3.82 3.25 0 1.84 0.92 2.47 1.69 2.47 0.98 0 1.78-0.72 2.04-2.1q0.09-0.4 0.09-0.8z"/>
				<path id="&lt;Compound Path&gt;" class="s1" d="m-80.77 537.01c0-1.64-0.09-2.47-0.12-3.59h1.92l0.12 1.7h0.06c0.6-1.12 1.72-1.9 3.18-1.9 1.93 0 3.36 1.41 3.36 4.77v9.33h-2.21v-8.93c0-1.67-0.31-3.3-1.92-3.3-0.92 0-1.81 0.77-2.07 2.24q-0.12 0.52-0.11 1.26v8.73h-2.21z"/>
				<path id="&lt;Compound Path&gt;" fill-rule="evenodd" class="s1" d="m-59.36 527.45v16.54c0 0.95 0.09 2.53 0.12 3.33h-1.9l-0.14-1.72h-0.09c-0.46 0.97-1.43 1.95-2.92 1.95-2.33 0-4.02-2.53-4.02-7.12 0-4.91 2.03-7.21 4.16-7.21 1.03 0 2.01 0.46 2.55 1.64h0.06v-7.41zm-2.18 11.28c0-0.28 0-0.63-0.03-0.91-0.14-1.47-1.01-2.7-2.07-2.7-1.84 0-2.47 2.55-2.47 5.31 0 2.93 0.75 5.28 2.36 5.28 0.69 0 1.64-0.37 2.12-2.38q0.09-0.4 0.09-0.92z"/>
				<path id="&lt;Compound Path&gt;" fill-rule="evenodd" class="s1" d="m-46.67 527.45v19.87h-2.21v-19.87z"/>
				<path id="&lt;Compound Path&gt;" fill-rule="evenodd" class="s1" d="m-33.43 540.37c0 5.37-2.47 7.18-4.62 7.18-2.5 0-4.51-2.27-4.51-7.15 0-5.05 2.27-7.18 4.65-7.18 2.5 0 4.48 2.33 4.48 7.15zm-6.92 0c0 2.3 0.4 5.43 2.41 5.43 1.9 0 2.3-3.25 2.3-5.43 0-2.12-0.4-5.4-2.36-5.4-1.98 0-2.35 3.28-2.35 5.4z"/>
				<path id="&lt;Compound Path&gt;" fill-rule="evenodd" class="s1" d="m-21.14 545.54c0 3.65-0.46 5.02-1.38 6.06-0.83 0.92-2.13 1.46-3.71 1.46-1.17 0-2.32-0.28-3.04-0.69l0.52-1.72c0.54 0.29 1.46 0.6 2.58 0.6 1.75 0 2.84-1.09 2.84-4.25v-1.4h-0.05c-0.46 1.09-1.5 1.69-2.67 1.69-2.47 0-4.08-2.78-4.08-6.86 0-5.11 2.32-7.21 4.39-7.21 1.47 0 2.15 0.98 2.59 1.75h0.05l0.12-1.55h1.95c-0.03 0.95-0.11 2.18-0.11 4.34zm-2.19-7.32c0-0.35-0.02-0.72-0.11-1.01-0.23-0.95-0.75-2.1-2.01-2.1-1.61 0-2.47 2.16-2.47 5.23 0 3.53 1.12 5.14 2.47 5.14 0.69 0 1.55-0.32 1.98-1.98 0.12-0.43 0.14-0.86 0.14-1.26z"/>
				<path id="&lt;Compound Path&gt;" fill-rule="evenodd" class="s1" d="m-8.11 540.37c0 5.37-2.47 7.18-4.62 7.18-2.5 0-4.51-2.27-4.51-7.15 0-5.05 2.27-7.18 4.65-7.18 2.5 0 4.48 2.33 4.48 7.15zm-6.92 0c0 2.3 0.4 5.43 2.41 5.43 1.9 0 2.3-3.25 2.3-5.43 0-2.12-0.4-5.4-2.35-5.4-1.99 0-2.36 3.28-2.36 5.4z"/>
				<path id="&lt;Compound Path&gt;" class="s1" d="m-4.58 545.02c0.49 0.32 1.35 0.72 2.24 0.72 1.23 0 2.04-0.78 2.04-2.01 0-1.06-0.37-1.78-1.78-2.73-1.81-1.15-2.79-2.35-2.79-3.93 0-2.27 1.67-3.85 3.82-3.85 1.09 0 1.9 0.37 2.47 0.72l-0.57 1.66c-0.55-0.37-1.12-0.63-1.87-0.63-1.18 0-1.78 0.87-1.78 1.78 0 0.92 0.34 1.44 1.72 2.39 1.61 1.03 2.88 2.29 2.88 4.22 0 2.78-1.9 4.13-4.2 4.13-1 0-2.12-0.31-2.72-0.8z"/>
				<path id="&lt;Compound Path&gt;" class="s1" d="m12.55 531.27c-0.73 0-1.31-0.64-1.31-1.44 0-0.79 0.58-1.43 1.31-1.43 0.72 0 1.3 0.64 1.3 1.43 0 0.8-0.58 1.44-1.3 1.44zm1.13 2.15v13.9h-2.21v-13.9z"/>
				<path id="&lt;Compound Path&gt;" class="s1" d="m18.19 537.01c0-1.64-0.09-2.47-0.12-3.59h1.92l0.12 1.7h0.06c0.6-1.12 1.72-1.9 3.19-1.9 1.92 0 3.35 1.41 3.35 4.77v9.33h-2.21v-8.93c0-1.67-0.31-3.3-1.92-3.3-0.92 0-1.81 0.77-2.07 2.24q-0.12 0.52-0.11 1.26v8.73h-2.21z"/>
				<path id="&lt;Compound Path&gt;" class="s1" d="m38.31 533.42l1.75 7.81c0.2 0.95 0.44 2.19 0.61 3.39h0.08c0.15-1.15 0.38-2.32 0.58-3.39l1.72-7.81h2.18l-3.64 13.9h-1.96l-3.61-13.9z"/>
				<path id="&lt;Compound Path&gt;" fill-rule="evenodd" class="s1" d="m49.77 540.57c0 4.28 1.69 5.17 3.27 5.17 0.98 0 1.75-0.23 2.3-0.52l0.37 1.61c-0.77 0.4-1.95 0.66-3.07 0.66-3.33 0-5.05-2.73-5.05-6.98 0-4.47 1.92-7.29 4.71-7.29 2.81 0 3.96 2.99 3.96 6.09 0 0.54-0.03 0.92-0.06 1.26zm4.36-1.63c0.03-2.76-1-4-2.06-4-1.47 0-2.19 2.1-2.27 4z"/>
				<path id="&lt;Compound Path&gt;" class="s1" d="m66.85 546.98c-0.49 0.28-1.32 0.51-2.3 0.51-3.04 0-5.08-2.44-5.08-7.03 0-3.99 2.01-7.24 5.49-7.24 0.74 0 1.55 0.2 1.95 0.43l-0.43 1.81c-0.29-0.14-0.86-0.37-1.58-0.37-2.24 0-3.22 2.64-3.22 5.37 0 3.24 1.24 5.19 3.28 5.19q0.85 0.01 1.58-0.37z"/>
				<path id="&lt;Compound Path&gt;" class="s1" d="m73.31 530.18v3.24h2.67v1.67h-2.67v8.27c0 1.81 0.63 2.29 1.44 2.29q0.55 0 0.89-0.08l0.11 1.69c-0.4 0.15-0.92 0.23-1.64 0.23-0.89 0-1.66-0.23-2.18-0.83-0.57-0.63-0.83-1.58-0.83-3.5v-8.07h-1.7v-1.67h1.7v-2.35z"/>
				<path id="&lt;Compound Path&gt;" fill-rule="evenodd" class="s1" d="m87.67 540.37c0 5.37-2.47 7.18-4.63 7.18-2.5 0-4.5-2.27-4.5-7.15 0-5.05 2.26-7.18 4.65-7.18 2.49 0 4.48 2.33 4.48 7.15zm-6.93 0c0 2.3 0.41 5.43 2.42 5.43 1.89 0 2.3-3.25 2.3-5.43 0-2.12-0.41-5.4-2.36-5.4-1.98 0-2.36 3.28-2.36 5.4z"/>
				<path id="&lt;Compound Path&gt;" class="s1" d="m91.54 537.01c0-1.17-0.09-2.55-0.12-3.59h1.99l0.11 2.21h0.06c0.46-1.32 1.63-2.41 2.93-2.41q0.25-0.01 0.46 0.03v2.24q-0.21 0-0.46 0c-1.41 0-2.44 1.29-2.67 2.87q-0.09 0.57-0.09 1.27v7.69h-2.21z"/>
				<path id="&lt;Compound Path&gt;" class="s1" d="m106.53 547.32v-12.23h-1.75v-1.67h1.75v-0.83c0-1.52 0.23-3.04 1.23-4.19 0.81-0.89 1.93-1.18 2.79-1.18 0.74 0 1.32 0.14 1.72 0.34l-0.35 1.73c-0.28-0.12-0.66-0.23-1.23-0.23-1.58 0-1.95 1.69-1.95 3.47v0.89h2.52v1.67h-2.52v12.23z"/>
				<path id="&lt;Compound Path&gt;" fill-rule="evenodd" class="s1" d="m122.49 540.37c0 5.37-2.47 7.18-4.62 7.18-2.5 0-4.51-2.27-4.51-7.15 0-5.05 2.27-7.18 4.65-7.18 2.5 0 4.48 2.33 4.48 7.15zm-6.92 0c0 2.3 0.4 5.43 2.41 5.43 1.9 0 2.3-3.25 2.3-5.43 0-2.12-0.4-5.4-2.36-5.4-1.98 0-2.35 3.28-2.35 5.4z"/>
				<path id="&lt;Compound Path&gt;" class="s1" d="m126.37 537.01c0-1.17-0.09-2.55-0.12-3.59h1.98l0.12 2.21h0.05c0.46-1.32 1.64-2.41 2.93-2.41q0.25-0.01 0.46 0.03v2.24q-0.21 0-0.46 0c-1.4 0-2.44 1.29-2.67 2.87q-0.08 0.57-0.08 1.27v7.69h-2.21z"/>
				<path id="&lt;Compound Path&gt;" class="s1" d="m134.95 537.01c0-1.64-0.09-2.47-0.11-3.59h1.92l0.11 1.73h0.06c0.6-1.12 1.67-1.93 3.13-1.93 1.29 0 2.38 0.6 2.9 2.13h0.06c0.37-0.69 0.86-1.27 1.38-1.58 0.54-0.38 1.2-0.55 1.92-0.55 1.87 0 3.33 1.35 3.33 4.91v9.19h-2.18v-8.7c0-1.81-0.26-3.56-1.95-3.56-0.92 0-1.73 0.78-2.04 2.1q-0.09 0.53-0.09 1.23v8.93h-2.18v-9.1c0-1.52-0.26-3.16-1.92-3.16-0.92 0-1.81 0.78-2.07 2.27q-0.09 0.52-0.09 1.17v8.82h-2.18z"/>
				<path id="&lt;Compound Path&gt;" fill-rule="evenodd" class="s1" d="m161.51 544.16c0 1.06 0.02 2.27 0.14 3.16h-1.98l-0.14-1.46h-0.09c-0.6 1.06-1.58 1.69-2.79 1.69-1.83 0-3.27-1.55-3.27-3.96 0-3.51 2.78-5.03 5.91-5.06v-0.43c0-1.86-0.48-3.13-2.21-3.13q-1.3 0.02-2.29 0.72l-0.49-1.55c0.6-0.43 1.86-0.92 3.24-0.92 2.79 0 3.97 1.81 3.97 4.91zm-2.16-4.05c-1.15 0-3.82 0.23-3.82 3.25 0 1.84 0.92 2.47 1.7 2.47 0.97 0 1.78-0.72 2.04-2.1q0.08-0.4 0.08-0.8z"/>
				<path id="&lt;Compound Path&gt;" class="s1" d="m168.51 530.18v3.24h2.67v1.67h-2.67v8.27c0 1.81 0.63 2.29 1.44 2.29q0.55 0 0.89-0.08l0.11 1.69c-0.4 0.15-0.92 0.23-1.63 0.23-0.9 0-1.67-0.23-2.19-0.83-0.57-0.63-0.83-1.58-0.83-3.5v-8.07h-1.69v-1.67h1.69v-2.35z"/>
				<path id="&lt;Compound Path&gt;" fill-rule="evenodd" class="s1" d="m187.83 544.16c0 1.06 0.03 2.27 0.15 3.16h-1.98l-0.15-1.46h-0.08c-0.61 1.06-1.58 1.69-2.79 1.69-1.84 0-3.27-1.55-3.27-3.96 0-3.51 2.78-5.03 5.91-5.06v-0.43c0-1.86-0.49-3.13-2.21-3.13q-1.3 0.02-2.3 0.72l-0.48-1.55c0.6-0.43 1.86-0.92 3.24-0.92 2.79 0 3.96 1.81 3.96 4.91zm-2.15-4.05c-1.15 0-3.82 0.23-3.82 3.25 0 1.84 0.92 2.47 1.69 2.47 0.98 0 1.79-0.72 2.04-2.1q0.09-0.4 0.09-0.8z"/>
				<path id="&lt;Compound Path&gt;" class="s1" d="m193.23 533.42l1.75 7.81c0.2 0.95 0.43 2.19 0.6 3.39h0.09c0.14-1.15 0.37-2.32 0.57-3.39l1.73-7.81h2.18l-3.65 13.9h-1.95l-3.62-13.9z"/>
				<path id="&lt;Compound Path&gt;" fill-rule="evenodd" class="s1" d="m210.57 544.16c0 1.06 0.03 2.27 0.15 3.16h-1.99l-0.14-1.46h-0.09c-0.6 1.06-1.57 1.69-2.78 1.69-1.84 0-3.27-1.55-3.27-3.96 0-3.51 2.78-5.03 5.91-5.06v-0.43c0-1.86-0.49-3.13-2.21-3.13q-1.3 0.02-2.3 0.72l-0.48-1.55c0.6-0.43 1.86-0.92 3.24-0.92 2.78 0 3.96 1.81 3.96 4.91zm-2.15-4.05c-1.15 0-3.82 0.23-3.82 3.25 0 1.84 0.92 2.47 1.69 2.47 0.98 0 1.78-0.72 2.04-2.1q0.09-0.4 0.09-0.8z"/>
				<path id="&lt;Compound Path&gt;" class="s1" d="m216.21 531.27c-0.72 0-1.31-0.64-1.31-1.44 0-0.79 0.59-1.43 1.31-1.43 0.73 0 1.31 0.64 1.31 1.43 0 0.8-0.58 1.44-1.31 1.44zm1.14 2.15v13.9h-2.21v-13.9z"/>
				<path id="&lt;Compound Path&gt;" fill-rule="evenodd" class="s1" d="m224.06 527.45v19.87h-2.21v-19.87z"/>
				<path id="&lt;Compound Path&gt;" fill-rule="evenodd" class="s1" d="m236.1 544.16c0 1.06 0.02 2.27 0.14 3.16h-1.98l-0.15-1.46h-0.08c-0.61 1.06-1.58 1.69-2.79 1.69-1.84 0-3.27-1.55-3.27-3.96 0-3.51 2.78-5.03 5.91-5.06v-0.43c0-1.86-0.48-3.13-2.21-3.13q-1.3 0.02-2.29 0.72l-0.49-1.55c0.6-0.43 1.86-0.92 3.24-0.92 2.79 0 3.97 1.81 3.97 4.91zm-2.16-4.05c-1.15 0-3.82 0.23-3.82 3.25 0 1.84 0.92 2.47 1.7 2.47 0.97 0 1.78-0.72 2.03-2.1q0.09-0.4 0.09-0.8z"/>
				<path id="&lt;Compound Path&gt;" fill-rule="evenodd" class="s1" d="m240.63 527.45h2.18v7.64h0.06c0.72-1.38 1.75-1.87 2.96-1.87 2.18 0 3.79 2.47 3.79 7.04 0 4.99-2.07 7.29-4.22 7.29-1.47 0-2.22-0.86-2.76-2.04h-0.12l-0.14 1.81h-1.86c0.02-0.8 0.11-2.38 0.11-3.33zm2.18 14.99q0 0.47 0.09 0.86c0.52 2.04 1.46 2.41 2.09 2.41 1.78 0 2.42-2.41 2.42-5.37 0-2.78-0.67-5.22-2.47-5.22-1.04 0-1.87 1.26-2.07 2.47q-0.05 0.47-0.06 0.94z"/>
				<path id="&lt;Compound Path&gt;" fill-rule="evenodd" class="s1" d="m255.76 527.45v19.87h-2.21v-19.87z"/>
				<path id="&lt;Compound Path&gt;" fill-rule="evenodd" class="s1" d="m262.02 540.57c0 4.28 1.69 5.17 3.27 5.17 0.98 0 1.75-0.23 2.3-0.52l0.37 1.61c-0.77 0.4-1.95 0.66-3.07 0.66-3.33 0-5.05-2.73-5.05-6.98 0-4.47 1.92-7.29 4.71-7.29 2.81 0 3.96 2.99 3.96 6.09 0 0.54-0.03 0.92-0.06 1.26zm4.37-1.63c0.02-2.76-1.01-4-2.07-4-1.47 0-2.18 2.1-2.27 4z"/>
				<path id="&lt;Compound Path&gt;" class="s1" d="m280.97 530.18v3.24h2.67v1.67h-2.67v8.27c0 1.81 0.63 2.29 1.43 2.29q0.55 0 0.89-0.08l0.12 1.69c-0.41 0.15-0.92 0.23-1.64 0.23-0.89 0-1.66-0.23-2.18-0.83-0.57-0.63-0.83-1.58-0.83-3.5v-8.07h-1.7v-1.67h1.7v-2.35z"/>
				<path id="&lt;Compound Path&gt;" fill-rule="evenodd" class="s1" d="m295.32 540.37c0 5.37-2.47 7.18-4.62 7.18-2.5 0-4.51-2.27-4.51-7.15 0-5.05 2.27-7.18 4.65-7.18 2.5 0 4.48 2.33 4.48 7.15zm-6.92 0c0 2.3 0.41 5.43 2.41 5.43 1.9 0 2.3-3.25 2.3-5.43 0-2.12-0.4-5.4-2.35-5.4-1.99 0-2.36 3.28-2.36 5.4z"/>
				<path id="&lt;Compound Path&gt;" fill-rule="evenodd" class="s1" d="m313.52 527.45v16.54c0 0.95 0.09 2.53 0.12 3.33h-1.9l-0.14-1.72h-0.08c-0.46 0.97-1.44 1.95-2.93 1.95-2.33 0-4.02-2.53-4.02-7.12 0-4.91 2.03-7.21 4.16-7.21 1.03 0 2.01 0.46 2.56 1.64h0.05v-7.41zm-2.18 11.28c0-0.28 0-0.63-0.03-0.91-0.14-1.47-1-2.7-2.06-2.7-1.84 0-2.47 2.55-2.47 5.31 0 2.93 0.74 5.28 2.35 5.28 0.69 0 1.64-0.37 2.12-2.38q0.09-0.4 0.09-0.92z"/>
				<path id="&lt;Compound Path&gt;" fill-rule="evenodd" class="s1" d="m326.59 540.37c0 5.37-2.47 7.18-4.63 7.18-2.49 0-4.5-2.27-4.5-7.15 0-5.05 2.26-7.18 4.65-7.18 2.5 0 4.48 2.33 4.48 7.15zm-6.92 0c0 2.3 0.4 5.43 2.41 5.43 1.89 0 2.3-3.25 2.3-5.43 0-2.12-0.41-5.4-2.36-5.4-1.98 0-2.35 3.28-2.35 5.4z"/>
				<path id="&lt;Compound Path&gt;" class="s1" d="m331.41 533.42l1.35 6.81c0.29 1.49 0.57 2.98 0.74 4.42h0.12c0.2-1.44 0.54-3.04 0.86-4.36l1.61-6.87h1.69l1.53 6.66c0.34 1.55 0.66 3.02 0.88 4.57h0.12c0.17-1.46 0.43-2.9 0.75-4.48l1.32-6.75h2.21l-3.51 13.9h-1.8l-1.61-6.75c-0.35-1.35-0.55-2.58-0.78-4.16h-0.05c-0.23 1.63-0.49 2.93-0.81 4.25l-1.66 6.66h-1.87l-3.39-13.9z"/>
				<path id="&lt;Compound Path&gt;" class="s1" d="m347.98 537.01c0-1.64-0.09-2.47-0.12-3.59h1.92l0.12 1.7h0.06c0.6-1.12 1.72-1.9 3.18-1.9 1.93 0 3.36 1.41 3.36 4.77v9.33h-2.21v-8.93c0-1.67-0.31-3.3-1.92-3.3-0.92 0-1.81 0.77-2.07 2.24q-0.12 0.52-0.11 1.26v8.73h-2.21z"/>
				<path id="&lt;Compound Path&gt;" fill-rule="evenodd" class="s1" d="m363.25 527.45v19.87h-2.21v-19.87z"/>
				<path id="&lt;Compound Path&gt;" fill-rule="evenodd" class="s1" d="m376.48 540.37c0 5.37-2.46 7.18-4.62 7.18-2.5 0-4.51-2.27-4.51-7.15 0-5.05 2.27-7.18 4.66-7.18 2.49 0 4.47 2.33 4.47 7.15zm-6.92 0c0 2.3 0.41 5.43 2.42 5.43 1.89 0 2.3-3.25 2.3-5.43 0-2.12-0.41-5.4-2.36-5.4-1.98 0-2.36 3.28-2.36 5.4z"/>
				<path id="&lt;Compound Path&gt;" fill-rule="evenodd" class="s1" d="m387.71 544.16c0 1.06 0.03 2.27 0.14 3.16h-1.98l-0.14-1.46h-0.09c-0.6 1.06-1.58 1.69-2.78 1.69-1.84 0-3.28-1.55-3.28-3.96 0-3.51 2.79-5.03 5.92-5.06v-0.43c0-1.86-0.49-3.13-2.21-3.13q-1.3 0.02-2.3 0.72l-0.49-1.55c0.61-0.43 1.87-0.92 3.25-0.92 2.78 0 3.96 1.81 3.96 4.91zm-2.15-4.05c-1.15 0-3.82 0.23-3.82 3.25 0 1.84 0.92 2.47 1.69 2.47 0.98 0 1.78-0.72 2.04-2.1q0.09-0.4 0.09-0.8z"/>
				<path id="&lt;Compound Path&gt;" fill-rule="evenodd" class="s1" d="m400.63 527.45v16.54c0 0.95 0.09 2.53 0.11 3.33h-1.89l-0.14-1.72h-0.09c-0.46 0.97-1.44 1.95-2.93 1.95-2.32 0-4.02-2.53-4.02-7.12 0-4.91 2.04-7.21 4.17-7.21 1.03 0 2 0.46 2.55 1.64h0.06v-7.41zm-2.18 11.28c0-0.28 0-0.63-0.03-0.91-0.15-1.47-1.01-2.7-2.07-2.7-1.84 0-2.47 2.55-2.47 5.31 0 2.93 0.75 5.28 2.35 5.28 0.69 0 1.64-0.37 2.13-2.38q0.09-0.4 0.09-0.92z"/>
				<path id="&lt;Compound Path&gt;" class="s1" d="m411.57 547.32v-12.23h-1.75v-1.67h1.75v-0.83c0-1.52 0.23-3.04 1.23-4.19 0.81-0.89 1.92-1.18 2.79-1.18 0.74 0 1.32 0.14 1.72 0.34l-0.34 1.73c-0.29-0.12-0.66-0.23-1.24-0.23-1.58 0-1.95 1.69-1.95 3.47v0.89h2.53v1.67h-2.53v12.23z"/>
				<path id="&lt;Compound Path&gt;" fill-rule="evenodd" class="s1" d="m427.53 540.37c0 5.37-2.47 7.18-4.62 7.18-2.5 0-4.51-2.27-4.51-7.15 0-5.05 2.27-7.18 4.65-7.18 2.5 0 4.48 2.33 4.48 7.15zm-6.92 0c0 2.3 0.4 5.43 2.41 5.43 1.9 0 2.3-3.25 2.3-5.43 0-2.12-0.4-5.4-2.35-5.4-1.99 0-2.36 3.28-2.36 5.4z"/>
				<path id="&lt;Compound Path&gt;" class="s1" d="m431.4 537.01c0-1.17-0.08-2.55-0.11-3.59h1.98l0.12 2.21h0.05c0.46-1.32 1.64-2.41 2.93-2.41q0.25-0.01 0.46 0.03v2.24q-0.21 0-0.46 0c-1.4 0-2.44 1.29-2.67 2.87q-0.08 0.57-0.08 1.27v7.69h-2.22z"/>
				<path id="&lt;Compound Path&gt;" class="s1" d="m446.39 547.32v-12.23h-1.75v-1.67h1.75v-0.83c0-1.52 0.23-3.04 1.24-4.19 0.8-0.89 1.92-1.18 2.78-1.18 0.75 0 1.32 0.14 1.72 0.34l-0.34 1.73c-0.29-0.12-0.66-0.23-1.24-0.23-1.57 0-1.95 1.69-1.95 3.47v0.89h2.53v1.67h-2.53v12.23z"/>
				<path id="&lt;Compound Path&gt;" class="s1" d="m453.89 537.01c0-1.17-0.09-2.55-0.12-3.59h1.98l0.12 2.21h0.05c0.46-1.32 1.64-2.41 2.93-2.41q0.25-0.01 0.46 0.03v2.24q-0.21 0-0.46 0c-1.4 0-2.44 1.29-2.67 2.87q-0.08 0.57-0.09 1.27v7.69h-2.2z"/>
				<path id="&lt;Compound Path&gt;" fill-rule="evenodd" class="s1" d="m463.62 540.57c0 4.28 1.69 5.17 3.27 5.17 0.98 0 1.75-0.23 2.3-0.52l0.37 1.61c-0.77 0.4-1.95 0.66-3.07 0.66-3.33 0-5.06-2.73-5.06-6.98 0-4.47 1.93-7.29 4.71-7.29 2.82 0 3.97 2.99 3.97 6.09 0 0.54-0.03 0.92-0.06 1.26zm4.37-1.63c0.02-2.76-1.01-4-2.07-4-1.47 0-2.18 2.1-2.27 4z"/>
				<path id="&lt;Compound Path&gt;" fill-rule="evenodd" class="s1" d="m475.47 540.57c0 4.28 1.7 5.17 3.28 5.17 0.98 0 1.75-0.23 2.3-0.52l0.37 1.61c-0.78 0.4-1.95 0.66-3.07 0.66-3.34 0-5.06-2.73-5.06-6.98 0-4.47 1.93-7.29 4.71-7.29 2.82 0 3.96 2.99 3.96 6.09 0 0.54-0.03 0.92-0.05 1.26zm4.36-1.63c0.03-2.76-1-4-2.06-4-1.47 0-2.19 2.1-2.27 4z"/>
			</g>
		</g>
		<g id="&lt;Group&gt;">
			<path id="&lt;Compound Path&gt;" class="s2" d="m77.07 212.88l-11-19.74 42.92-24.87-13.36-13.34-49.99 40.8 40.31 39.33 62.76-5.02-43-18.77 23.23-13.73-42.1-3.89zm104.06-71.24l-18.2 36.87 22.49-13.28-6.42 49.77 36.36-51.84-15.06-55.23-58.87 21.4 5.36 18.43 43.53-24.38 10.48 19.08zm-81.87-57.6l-19.79 11.84 2.55 9.5-25.52 3.81 1.65 4.53 25.21-2.47 2.04 4.89-25.01 3.53 1.69 4.81 24.81-2.98 2.09 4.98-24.59 3.79 2.12 4.97 24.27-3.26 2.11 5.37-24.14 3.7 2.19 5.05 23.61-2.92 2.48 4.32 16.64-13.21 21.63-8.34-2.01-3.06 15.72-21.73-3.69-4.04-15.51 21.03-3.06-3.06 15.83-21.84-4.12-3.9-15.61 20.25-3.8-3.9 15.93-21.31-3.9-3.8-16.15 19.94-3.12-3.06 15.15-21.63-3.55-3.7-15.44 21.11zm18.32 53.79l-17.52 13.88 15.99 16.9 11.51-10.16 16-5.27-6.48-22.26zm43.59-85.04l10.32 32.22 5.48-42.3zm-78.19 6.69l19.12 2.52 10.21-16.13-9.18-12.03zm16.24 20.89l1.59-15.51-19.1-1.58-2.53 28.17zm7.47-48.52l8.3 11.54 20.52-6.49 2.95-10.97zm32.1 4.21l18.57 15.4 3.8-3.59-19.48-20.5z"/>
		</g>
	</g>
</svg>