<svg version="1.2" xmlns="http://www.w3.org/2000/svg" viewBox="0 0 200 200" width="200" height="200">
	<style>
		.s0 { fill: #4c4c4c } 
		.s1 { fill: #898989 } 
		.s2 { fill: #ec1c24 } 
	</style>
	<g id="Layer 1">
		<g id="&lt;Group&gt;">
			<g id="&lt;Group&gt;">
				<path id="&lt;Compound Path&gt;" class="s0" d="m19.67 430.79l1.2 6.05c0.26 1.32 0.51 2.65 0.66 3.92h0.11c0.17-1.27 0.48-2.7 0.76-3.87l1.43-6.1h1.5l1.35 5.92c0.31 1.38 0.59 2.68 0.79 4.05h0.11c0.15-1.3 0.38-2.57 0.66-3.97l1.17-6h1.97l-3.11 12.34h-1.61l-1.43-5.99c-0.31-1.2-0.48-2.29-0.69-3.7h-0.05c-0.2 1.46-0.43 2.61-0.71 3.78l-1.48 5.91h-1.66l-3.01-12.34z"/>
				<path id="&lt;Compound Path&gt;" class="s0" d="m35.89 430.79l1.2 6.05c0.25 1.32 0.51 2.65 0.66 3.92h0.1c0.18-1.27 0.49-2.7 0.77-3.87l1.43-6.1h1.5l1.35 5.92c0.31 1.38 0.59 2.68 0.79 4.05h0.1c0.16-1.3 0.39-2.57 0.67-3.97l1.17-6h1.96l-3.11 12.34h-1.6l-1.43-5.99c-0.31-1.2-0.49-2.29-0.69-3.7h-0.05c-0.2 1.46-0.43 2.61-0.71 3.78l-1.48 5.91h-1.66l-3.01-12.34z"/>
				<path id="&lt;Compound Path&gt;" class="s0" d="m52.11 430.79l1.2 6.05c0.25 1.32 0.51 2.65 0.66 3.92h0.1c0.18-1.27 0.49-2.7 0.77-3.87l1.42-6.1h1.51l1.35 5.92c0.31 1.38 0.59 2.68 0.79 4.05h0.1c0.15-1.3 0.38-2.57 0.66-3.97l1.18-6h1.96l-3.11 12.34h-1.61l-1.42-5.99c-0.31-1.2-0.49-2.29-0.69-3.7h-0.05c-0.21 1.46-0.44 2.61-0.72 3.78l-1.48 5.91h-1.65l-3.01-12.34z"/>
				<path id="&lt;Compound Path&gt;" class="s0" d="m65.6 441.86c0-0.87 0.58-1.48 1.3-1.48 0.76 0 1.3 0.59 1.3 1.48 0 0.89-0.49 1.48-1.33 1.48-0.71 0-1.27-0.59-1.27-1.48z"/>
				<path id="&lt;Compound Path&gt;" class="s0" d="m71.95 425.49h1.96v17.64h-1.96z"/>
				<path id="&lt;Compound Path&gt;" fill-rule="evenodd" class="s0" d="m85.66 436.96c0 4.77-2.19 6.38-4.1 6.38-2.22 0-4-2.02-4-6.35 0-4.49 2.01-6.38 4.13-6.38 2.21 0 3.97 2.07 3.97 6.35zm-6.14 0c0 2.04 0.36 4.82 2.14 4.82 1.68 0 2.04-2.88 2.04-4.82 0-1.88-0.36-4.79-2.09-4.79-1.76 0-2.09 2.91-2.09 4.79z"/>
				<path id="&lt;Compound Path&gt;" fill-rule="evenodd" class="s0" d="m96.58 441.55c0 3.24-0.41 4.46-1.23 5.38-0.74 0.82-1.88 1.3-3.29 1.3-1.04 0-2.06-0.25-2.7-0.61l0.46-1.53c0.49 0.26 1.3 0.54 2.3 0.54 1.55 0 2.52-0.97 2.52-3.78v-1.25h-0.05c-0.41 0.97-1.33 1.51-2.37 1.51-2.2 0-3.62-2.48-3.62-6.1 0-4.53 2.06-6.4 3.9-6.4 1.3 0 1.91 0.87 2.29 1.56h0.05l0.11-1.38h1.73c-0.03 0.84-0.1 1.94-0.1 3.85zm-1.94-6.5c0-0.3-0.03-0.64-0.1-0.89-0.21-0.84-0.66-1.86-1.79-1.86-1.42 0-2.19 1.91-2.19 4.64 0 3.14 1 4.56 2.19 4.56 0.62 0 1.38-0.28 1.76-1.76q0.14-0.58 0.13-1.12z"/>
				<path id="&lt;Compound Path&gt;" fill-rule="evenodd" class="s0" d="m108.15 436.96c0 4.77-2.19 6.38-4.1 6.38-2.22 0-4-2.02-4-6.35 0-4.49 2.01-6.38 4.13-6.38 2.21 0 3.97 2.07 3.97 6.35zm-6.14 0c0 2.04 0.36 4.82 2.14 4.82 1.68 0 2.04-2.88 2.04-4.82 0-1.88-0.36-4.79-2.09-4.79-1.76 0-2.09 2.91-2.09 4.79z"/>
				<path id="&lt;Compound Path&gt;" fill-rule="evenodd" class="s0" d="m113 437.14c0 3.8 1.5 4.59 2.91 4.59 0.86 0 1.55-0.2 2.04-0.46l0.33 1.43c-0.69 0.36-1.74 0.59-2.73 0.59-2.96 0-4.49-2.43-4.49-6.2 0-3.98 1.71-6.48 4.18-6.48 2.5 0 3.52 2.66 3.52 5.41 0 0.48-0.02 0.82-0.05 1.12zm3.88-1.45c0.02-2.45-0.9-3.55-1.84-3.55-1.3 0-1.94 1.87-2.01 3.55z"/>
				<path id="&lt;Compound Path&gt;" fill-rule="evenodd" class="s0" d="m122.13 434.64c0-1.88-0.08-2.98-0.1-3.85h1.73l0.1 1.58h0.05c0.69-1.3 1.66-1.76 2.63-1.76 2.17 0 3.57 2.27 3.57 6.33 0 4.59-1.89 6.4-3.82 6.4-1.18 0-1.84-0.74-2.17-1.43h-0.05v6.12h-1.94zm1.94 3.98q-0.01 0.54 0.1 1.02c0.38 1.76 1.27 2.06 1.81 2.06 1.63 0 2.17-2.24 2.17-4.71 0-2.55-0.61-4.7-2.2-4.7-0.89 0-1.7 1.1-1.81 2.22q-0.07 0.43-0.07 0.94z"/>
				<path id="&lt;Compound Path&gt;" class="s0" d="m133.27 441.09c0.44 0.28 1.2 0.64 1.99 0.64 1.1 0 1.81-0.69 1.81-1.78 0-0.95-0.33-1.58-1.58-2.43-1.61-1.02-2.47-2.09-2.47-3.49 0-2.01 1.48-3.42 3.39-3.42 0.97 0 1.68 0.34 2.19 0.64l-0.51 1.48c-0.48-0.33-0.99-0.56-1.66-0.56-1.04 0-1.58 0.76-1.58 1.58 0 0.82 0.31 1.28 1.53 2.12 1.43 0.92 2.55 2.04 2.55 3.75 0 2.47-1.68 3.67-3.72 3.67-0.89 0-1.89-0.28-2.42-0.72z"/>
				<path id="&lt;Compound Path&gt;" class="s0" d="m141.79 441.86c0-0.87 0.59-1.48 1.3-1.48 0.76 0 1.3 0.59 1.3 1.48 0 0.89-0.48 1.48-1.33 1.48-0.71 0-1.27-0.59-1.27-1.48z"/>
				<path id="&lt;Compound Path&gt;" class="s0" d="m154.16 442.83c-0.44 0.25-1.18 0.46-2.04 0.46-2.71 0-4.52-2.17-4.52-6.25 0-3.54 1.79-6.43 4.87-6.43 0.67 0 1.38 0.18 1.74 0.39l-0.39 1.6c-0.25-0.12-0.76-0.33-1.4-0.33-1.99 0-2.85 2.35-2.85 4.77 0 2.88 1.09 4.62 2.9 4.62q0.76 0 1.41-0.34z"/>
				<path id="&lt;Compound Path&gt;" fill-rule="evenodd" class="s0" d="m164.53 436.96c0 4.77-2.19 6.38-4.1 6.38-2.22 0-4-2.02-4-6.35 0-4.49 2.01-6.38 4.13-6.38 2.22 0 3.97 2.07 3.97 6.35zm-6.14 0c0 2.04 0.36 4.82 2.14 4.82 1.68 0 2.04-2.88 2.04-4.82 0-1.88-0.36-4.79-2.09-4.79-1.76 0-2.09 2.91-2.09 4.79z"/>
				<path id="&lt;Compound Path&gt;" class="s0" d="m168 433.98c0-1.45-0.07-2.19-0.1-3.19h1.71l0.1 1.53h0.05c0.54-0.99 1.48-1.71 2.78-1.71 1.15 0 2.12 0.54 2.58 1.89h0.05c0.33-0.61 0.76-1.12 1.22-1.4q0.74-0.49 1.71-0.49c1.66 0 2.96 1.2 2.96 4.36v8.16h-1.94v-7.72c0-1.61-0.23-3.16-1.74-3.16-0.81 0-1.52 0.68-1.8 1.86q-0.08 0.47-0.08 1.09v7.93h-1.94v-8.08c0-1.35-0.23-2.8-1.71-2.8-0.81 0-1.6 0.68-1.83 2.01q-0.08 0.47-0.08 1.05v7.82h-1.94z"/>
			</g>
			<g id="&lt;Group&gt;">
				<path id="&lt;Compound Path&gt;" class="s1" d="m-169.32 419.4v-1.1l1.19-1.63c1.71-2.37 3.72-5.06 3.72-7.74 0-1.59-0.69-2.55-2.03-2.55-1.03 0-1.71 0.55-2.07 0.79l-0.41-1.28c0.48-0.42 1.49-0.97 2.79-0.97 2.38 0 3.39 1.76 3.39 3.92 0 2.69-1.74 5.28-3.52 7.7l-0.95 1.32v0.05h4.75v1.49z"/>
				<path id="&lt;Compound Path&gt;" fill-rule="evenodd" class="s1" d="m-152.6 412.23c0 5.21-1.65 7.35-3.72 7.35-2.22 0-3.56-2.64-3.56-7.31 0-4.81 1.43-7.35 3.76-7.35 2.31 0 3.52 2.75 3.52 7.31zm-5.59 0.02c-0.02 3.46 0.57 5.88 1.98 5.88 1.37 0 1.92-2.45 1.92-5.88 0-3.34-0.55-5.87-1.92-5.87-1.38 0-1.98 2.42-1.98 5.87z"/>
				<path id="&lt;Compound Path&gt;" fill-rule="evenodd" class="s1" d="m-143.03 412.23c0 5.21-1.65 7.35-3.72 7.35-2.22 0-3.56-2.64-3.56-7.31 0-4.81 1.43-7.35 3.76-7.35 2.31 0 3.52 2.75 3.52 7.31zm-5.59 0.02c-0.02 3.46 0.57 5.88 1.98 5.88 1.37 0 1.92-2.45 1.92-5.88 0-3.34-0.55-5.87-1.92-5.87-1.38 0-1.98 2.42-1.98 5.87z"/>
				<path id="&lt;Compound Path&gt;" class="s1" d="m-140.96 422.17c0.46-1.27 1.05-3.6 1.27-5.12l1.92-0.22c-0.51 1.78-1.43 4.22-2.03 5.19z"/>
				<path id="&lt;Compound Path&gt;" fill-rule="evenodd" class="s1" d="m-128.09 412.23c0 5.21-1.65 7.35-3.72 7.35-2.22 0-3.57-2.64-3.57-7.31 0-4.81 1.44-7.35 3.77-7.35 2.31 0 3.52 2.75 3.52 7.31zm-5.59 0.02c-0.02 3.46 0.57 5.88 1.98 5.88 1.36 0 1.91-2.45 1.91-5.88 0-3.34-0.55-5.87-1.91-5.87-1.39 0-1.98 2.42-1.98 5.87z"/>
				<path id="&lt;Compound Path&gt;" fill-rule="evenodd" class="s1" d="m-118.52 412.23c0 5.21-1.65 7.35-3.72 7.35-2.22 0-3.57-2.64-3.57-7.31 0-4.81 1.43-7.35 3.77-7.35 2.31 0 3.52 2.75 3.52 7.31zm-5.59 0.02c-0.02 3.46 0.57 5.88 1.98 5.88 1.36 0 1.91-2.45 1.91-5.88 0-3.34-0.55-5.87-1.91-5.87-1.39 0-1.98 2.42-1.98 5.87z"/>
				<path id="&lt;Compound Path&gt;" fill-rule="evenodd" class="s1" d="m-108.95 412.23c0 5.21-1.65 7.35-3.72 7.35-2.22 0-3.56-2.64-3.56-7.31 0-4.81 1.42-7.35 3.76-7.35 2.31 0 3.52 2.75 3.52 7.31zm-5.59 0.02c-0.02 3.46 0.57 5.88 1.98 5.88 1.36 0 1.91-2.45 1.91-5.88 0-3.34-0.55-5.87-1.91-5.87-1.39 0-1.98 2.42-1.98 5.87z"/>
				<path id="&lt;Compound Path&gt;" class="s1" d="m-100.06 407.67v5.24h5.06v1.21h-5.06v5.28h-1.26v-5.28h-5.04v-1.21h5.04v-5.24z"/>
				<path id="&lt;Compound Path&gt;" fill-rule="evenodd" class="s1" d="m-87.33 404.18h1.67v5.85h0.05c0.55-1.06 1.34-1.43 2.26-1.43 1.68 0 2.91 1.89 2.91 5.39 0 3.83-1.58 5.59-3.24 5.59-1.12 0-1.69-0.66-2.11-1.56h-0.09l-0.11 1.38h-1.43c0.03-0.61 0.09-1.82 0.09-2.55zm1.67 11.49q0 0.36 0.07 0.66c0.4 1.56 1.12 1.84 1.61 1.84 1.36 0 1.84-1.84 1.84-4.11 0-2.14-0.5-4.01-1.89-4.01-0.79 0-1.43 0.97-1.58 1.9q-0.04 0.36-0.05 0.72z"/>
				<path id="&lt;Compound Path&gt;" class="s1" d="m-77.45 411.5c0-0.9-0.07-1.96-0.09-2.75h1.52l0.09 1.7h0.04c0.35-1.02 1.26-1.85 2.25-1.85q0.19-0.01 0.35 0.02v1.72q-0.16 0-0.35 0c-1.08 0-1.87 0.99-2.05 2.2q-0.07 0.43-0.07 0.97v5.89h-1.69z"/>
				<path id="&lt;Compound Path&gt;" fill-rule="evenodd" class="s1" d="m-65.39 416.98c0 0.82 0.02 1.74 0.11 2.42h-1.52l-0.11-1.12h-0.07c-0.46 0.81-1.21 1.3-2.13 1.3-1.41 0-2.51-1.19-2.51-3.04 0-2.68 2.13-3.85 4.53-3.87v-0.33c0-1.43-0.37-2.4-1.69-2.4q-1 0.01-1.76 0.55l-0.38-1.19c0.47-0.33 1.43-0.7 2.49-0.7 2.13 0 3.04 1.39 3.04 3.76zm-1.65-3.1c-0.88 0-2.93 0.17-2.93 2.49 0 1.4 0.7 1.89 1.3 1.89 0.75 0 1.36-0.55 1.56-1.61q0.07-0.31 0.07-0.61z"/>
				<path id="&lt;Compound Path&gt;" class="s1" d="m-61.9 411.5c0-1.25-0.06-1.89-0.08-2.75h1.47l0.09 1.3h0.04c0.46-0.86 1.32-1.45 2.44-1.45 1.48 0 2.58 1.08 2.58 3.65v7.15h-1.7v-6.84c0-1.28-0.24-2.53-1.47-2.53-0.7 0-1.39 0.59-1.58 1.72q-0.1 0.4-0.09 0.96v6.69h-1.7z"/>
				<path id="&lt;Compound Path&gt;" fill-rule="evenodd" class="s1" d="m-45.48 404.18v12.67c0 0.73 0.06 1.94 0.08 2.55h-1.45l-0.11-1.32h-0.06c-0.36 0.75-1.1 1.5-2.25 1.5-1.78 0-3.08-1.94-3.08-5.46 0-3.76 1.56-5.52 3.19-5.52 0.79 0 1.54 0.35 1.96 1.25h0.04v-5.67zm-1.67 8.64c0-0.22 0-0.48-0.02-0.7-0.11-1.12-0.77-2.07-1.59-2.07-1.4 0-1.89 1.96-1.89 4.07 0 2.25 0.58 4.05 1.81 4.05 0.53 0 1.25-0.29 1.63-1.83q0.06-0.3 0.06-0.7z"/>
				<path id="&lt;Compound Path&gt;" class="s1" d="m-37.45 404.18h1.69v15.22h-1.69z"/>
				<path id="&lt;Compound Path&gt;" fill-rule="evenodd" class="s1" d="m-25.62 414.08c0 4.11-1.89 5.5-3.54 5.5-1.91 0-3.45-1.74-3.45-5.48 0-3.87 1.73-5.5 3.56-5.5 1.91 0 3.43 1.78 3.43 5.48zm-5.3 0c0 1.76 0.31 4.16 1.85 4.16 1.45 0 1.76-2.49 1.76-4.16 0-1.63-0.31-4.14-1.81-4.14-1.51 0-1.8 2.51-1.8 4.14z"/>
				<path id="&lt;Compound Path&gt;" fill-rule="evenodd" class="s1" d="m-16.2 418.04c0 2.79-0.35 3.85-1.06 4.64-0.64 0.7-1.63 1.12-2.84 1.12-0.9 0-1.78-0.22-2.33-0.52l0.4-1.32c0.42 0.21 1.12 0.46 1.98 0.46 1.34 0 2.18-0.84 2.18-3.26v-1.08h-0.05c-0.35 0.84-1.14 1.3-2.04 1.3-1.9 0-3.13-2.13-3.13-5.26 0-3.91 1.78-5.52 3.37-5.52 1.12 0 1.65 0.75 1.98 1.34h0.04l0.09-1.19h1.5c-0.03 0.73-0.09 1.67-0.09 3.33zm-1.67-5.62c0-0.26-0.03-0.55-0.09-0.77-0.18-0.72-0.57-1.6-1.54-1.6-1.23 0-1.89 1.65-1.89 4 0 2.71 0.85 3.94 1.89 3.94 0.53 0 1.19-0.24 1.52-1.52q0.12-0.5 0.11-0.97z"/>
				<path id="&lt;Compound Path&gt;" fill-rule="evenodd" class="s1" d="m-6.21 414.08c0 4.11-1.9 5.5-3.55 5.5-1.91 0-3.45-1.74-3.45-5.48 0-3.87 1.74-5.5 3.56-5.5 1.92 0 3.44 1.78 3.44 5.48zm-5.31 0c0 1.76 0.31 4.16 1.85 4.16 1.45 0 1.76-2.49 1.76-4.16 0-1.63-0.31-4.14-1.8-4.14-1.52 0-1.81 2.51-1.81 4.14z"/>
				<path id="&lt;Compound Path&gt;" class="s1" d="m-3.51 417.64c0.37 0.24 1.03 0.55 1.72 0.55 0.94 0 1.56-0.59 1.56-1.54 0-0.81-0.29-1.36-1.37-2.09-1.38-0.88-2.13-1.8-2.13-3.01 0-1.74 1.28-2.95 2.93-2.95 0.83 0 1.45 0.28 1.89 0.55l-0.44 1.27c-0.42-0.28-0.86-0.48-1.43-0.48-0.9 0-1.36 0.66-1.36 1.36 0 0.71 0.26 1.11 1.32 1.83 1.23 0.79 2.2 1.76 2.2 3.24 0 2.13-1.46 3.16-3.22 3.16-0.77 0-1.63-0.24-2.09-0.61z"/>
				<path id="&lt;Compound Path&gt;" class="s1" d="m10.61 406c0 0.66-0.39 1.1-1.03 1.1-0.55 0-0.97-0.44-0.97-1.1 0-0.66 0.44-1.1 0.99-1.1 0.62 0 1.01 0.44 1.01 1.1zm-1.82 13.4v-10.65h1.69v10.65z"/>
				<path id="&lt;Compound Path&gt;" class="s1" d="m13.94 411.5c0-1.25-0.07-1.89-0.09-2.75h1.47l0.09 1.3h0.04c0.47-0.86 1.32-1.45 2.45-1.45 1.47 0 2.57 1.08 2.57 3.65v7.15h-1.69v-6.84c0-1.28-0.25-2.53-1.48-2.53-0.7 0-1.38 0.59-1.58 1.72q-0.1 0.4-0.09 0.96v6.69h-1.69z"/>
				<path id="&lt;Compound Path&gt;" class="s1" d="m29.36 408.75l1.34 5.99c0.15 0.72 0.33 1.67 0.46 2.59h0.07c0.11-0.88 0.28-1.78 0.44-2.59l1.32-5.99h1.67l-2.79 10.65h-1.5l-2.77-10.65z"/>
				<path id="&lt;Compound Path&gt;" fill-rule="evenodd" class="s1" d="m38.14 414.23c0 3.28 1.29 3.96 2.5 3.96 0.75 0 1.35-0.17 1.76-0.39l0.29 1.23c-0.59 0.31-1.5 0.5-2.35 0.5-2.56 0-3.88-2.09-3.88-5.34 0-3.44 1.48-5.59 3.61-5.59 2.16 0 3.04 2.29 3.04 4.66 0 0.42-0.02 0.71-0.05 0.97zm3.35-1.25c0.02-2.11-0.77-3.06-1.58-3.06-1.13 0-1.68 1.61-1.74 3.06z"/>
				<path id="&lt;Compound Path&gt;" class="s1" d="m51.23 419.14c-0.38 0.22-1.02 0.39-1.76 0.39-2.34 0-3.9-1.87-3.9-5.39 0-3.05 1.54-5.54 4.2-5.54 0.58 0 1.19 0.15 1.5 0.33l-0.33 1.39c-0.22-0.11-0.66-0.29-1.21-0.29-1.72 0-2.46 2.02-2.46 4.11 0 2.49 0.94 3.99 2.5 3.99q0.66 0 1.21-0.29z"/>
				<path id="&lt;Compound Path&gt;" class="s1" d="m56.18 406.27v2.48h2.04v1.28h-2.04v6.34c0 1.38 0.48 1.76 1.1 1.76q0.42 0 0.68-0.07l0.09 1.3c-0.31 0.11-0.71 0.17-1.26 0.17-0.68 0-1.27-0.17-1.67-0.63-0.44-0.49-0.64-1.21-0.64-2.69v-6.18h-1.3v-1.28h1.3v-1.8z"/>
				<path id="&lt;Compound Path&gt;" fill-rule="evenodd" class="s1" d="m67.18 414.08c0 4.11-1.9 5.5-3.55 5.5-1.91 0-3.45-1.74-3.45-5.48 0-3.87 1.74-5.5 3.56-5.5 1.92 0 3.44 1.78 3.44 5.48zm-5.31 0c0 1.76 0.31 4.16 1.85 4.16 1.45 0 1.76-2.49 1.76-4.16 0-1.63-0.31-4.14-1.8-4.14-1.52 0-1.81 2.51-1.81 4.14z"/>
				<path id="&lt;Compound Path&gt;" class="s1" d="m70.14 411.5c0-0.9-0.06-1.96-0.08-2.75h1.52l0.08 1.7h0.05c0.35-1.02 1.25-1.85 2.24-1.85q0.19-0.01 0.35 0.02v1.72q-0.16 0-0.35 0c-1.08 0-1.87 0.99-2.04 2.2q-0.07 0.43-0.07 0.97v5.89h-1.7z"/>
				<path id="&lt;Compound Path&gt;" class="s1" d="m81.63 419.4v-9.37h-1.34v-1.28h1.34v-0.64c0-1.16 0.18-2.33 0.95-3.21 0.61-0.68 1.47-0.9 2.13-0.9 0.57 0 1.01 0.11 1.32 0.26l-0.26 1.32c-0.22-0.08-0.51-0.17-0.95-0.17-1.21 0-1.5 1.3-1.5 2.66v0.68h1.94v1.28h-1.94v9.37z"/>
				<path id="&lt;Compound Path&gt;" fill-rule="evenodd" class="s1" d="m93.86 414.08c0 4.11-1.89 5.5-3.54 5.5-1.91 0-3.45-1.74-3.45-5.48 0-3.87 1.73-5.5 3.56-5.5 1.91 0 3.43 1.78 3.43 5.48zm-5.3 0c0 1.76 0.31 4.16 1.85 4.16 1.45 0 1.76-2.49 1.76-4.16 0-1.63-0.31-4.14-1.81-4.14-1.51 0-1.8 2.51-1.8 4.14z"/>
				<path id="&lt;Compound Path&gt;" class="s1" d="m96.83 411.5c0-0.9-0.06-1.96-0.09-2.75h1.52l0.09 1.7h0.04c0.36-1.02 1.26-1.85 2.25-1.85q0.19-0.01 0.35 0.02v1.72q-0.16 0-0.35 0c-1.08 0-1.87 0.99-2.05 2.2q-0.06 0.43-0.06 0.97v5.89h-1.7z"/>
				<path id="&lt;Compound Path&gt;" class="s1" d="m103.41 411.5c0-1.25-0.07-1.89-0.09-2.75h1.47l0.09 1.32h0.05c0.46-0.86 1.27-1.47 2.4-1.47 0.99 0 1.82 0.46 2.22 1.63h0.04c0.29-0.53 0.66-0.97 1.06-1.21q0.64-0.43 1.47-0.42c1.43 0 2.56 1.03 2.56 3.76v7.04h-1.68v-6.66c0-1.39-0.2-2.73-1.49-2.73-0.71 0-1.32 0.59-1.57 1.6q-0.06 0.41-0.06 0.95v6.84h-1.67v-6.97c0-1.17-0.2-2.42-1.48-2.42-0.7 0-1.38 0.59-1.58 1.74q-0.07 0.4-0.07 0.9v6.75h-1.67z"/>
				<path id="&lt;Compound Path&gt;" fill-rule="evenodd" class="s1" d="m123.76 416.98c0 0.82 0.02 1.74 0.11 2.42h-1.52l-0.11-1.12h-0.06c-0.47 0.81-1.22 1.3-2.14 1.3-1.41 0-2.51-1.19-2.51-3.04 0-2.68 2.14-3.85 4.53-3.87v-0.33c0-1.43-0.37-2.4-1.69-2.4q-0.99 0.01-1.76 0.55l-0.37-1.19c0.46-0.33 1.43-0.7 2.48-0.7 2.14 0 3.04 1.39 3.04 3.76zm-1.65-3.1c-0.88 0-2.93 0.17-2.93 2.49 0 1.4 0.71 1.89 1.3 1.89 0.75 0 1.37-0.55 1.56-1.61q0.07-0.31 0.07-0.61z"/>
				<path id="&lt;Compound Path&gt;" class="s1" d="m129.13 406.27v2.48h2.04v1.28h-2.04v6.34c0 1.38 0.48 1.76 1.1 1.76q0.42 0 0.68-0.07l0.09 1.3c-0.31 0.11-0.71 0.17-1.26 0.17-0.68 0-1.27-0.17-1.67-0.63-0.44-0.49-0.64-1.21-0.64-2.69v-6.18h-1.3v-1.28h1.3v-1.8z"/>
				<path id="&lt;Compound Path&gt;" fill-rule="evenodd" class="s1" d="m143.93 416.98c0 0.82 0.03 1.74 0.11 2.42h-1.51l-0.11-1.12h-0.07c-0.46 0.81-1.21 1.3-2.14 1.3-1.4 0-2.5-1.19-2.5-3.04 0-2.68 2.13-3.85 4.53-3.87v-0.33c0-1.43-0.37-2.4-1.7-2.4q-0.99 0.01-1.75 0.55l-0.38-1.19c0.46-0.33 1.43-0.7 2.49-0.7 2.13 0 3.03 1.39 3.03 3.76zm-1.65-3.1c-0.88 0-2.92 0.17-2.92 2.49 0 1.4 0.7 1.89 1.29 1.89 0.75 0 1.37-0.55 1.57-1.61q0.06-0.31 0.06-0.61z"/>
				<path id="&lt;Compound Path&gt;" class="s1" d="m148.07 408.75l1.34 5.99c0.16 0.72 0.33 1.67 0.46 2.59h0.07c0.11-0.88 0.28-1.78 0.44-2.59l1.32-5.99h1.67l-2.79 10.65h-1.5l-2.77-10.65z"/>
				<path id="&lt;Compound Path&gt;" fill-rule="evenodd" class="s1" d="m161.36 416.98c0 0.82 0.02 1.74 0.11 2.42h-1.52l-0.11-1.12h-0.07c-0.46 0.81-1.21 1.3-2.13 1.3-1.41 0-2.51-1.19-2.51-3.04 0-2.68 2.14-3.85 4.53-3.87v-0.33c0-1.43-0.37-2.4-1.69-2.4q-1 0.01-1.76 0.55l-0.37-1.19c0.46-0.33 1.43-0.7 2.48-0.7 2.14 0 3.04 1.39 3.04 3.76zm-1.65-3.1c-0.88 0-2.93 0.17-2.93 2.49 0 1.4 0.71 1.89 1.3 1.89 0.75 0 1.36-0.55 1.56-1.61q0.07-0.31 0.07-0.61z"/>
				<path id="&lt;Compound Path&gt;" class="s1" d="m166.68 406c0 0.66-0.39 1.1-1.03 1.1-0.55 0-0.97-0.44-0.97-1.1 0-0.66 0.44-1.1 0.99-1.1 0.62 0 1.01 0.44 1.01 1.1zm-1.82 13.4v-10.65h1.69v10.65z"/>
				<path id="&lt;Compound Path&gt;" class="s1" d="m170 404.18h1.7v15.22h-1.7z"/>
				<path id="&lt;Compound Path&gt;" fill-rule="evenodd" class="s1" d="m180.92 416.98c0 0.82 0.02 1.74 0.11 2.42h-1.52l-0.11-1.12h-0.07c-0.46 0.81-1.21 1.3-2.13 1.3-1.41 0-2.51-1.19-2.51-3.04 0-2.68 2.13-3.85 4.53-3.87v-0.33c0-1.43-0.37-2.4-1.69-2.4q-1 0.01-1.76 0.55l-0.38-1.19c0.47-0.33 1.43-0.7 2.49-0.7 2.13 0 3.04 1.39 3.04 3.76zm-1.65-3.1c-0.89 0-2.93 0.17-2.93 2.49 0 1.4 0.7 1.89 1.3 1.89 0.74 0 1.36-0.55 1.56-1.61q0.07-0.31 0.07-0.61z"/>
				<path id="&lt;Compound Path&gt;" fill-rule="evenodd" class="s1" d="m184.39 404.18h1.67v5.85h0.05c0.55-1.06 1.34-1.43 2.26-1.43 1.67 0 2.91 1.89 2.91 5.39 0 3.83-1.59 5.59-3.24 5.59-1.12 0-1.69-0.66-2.11-1.56h-0.09l-0.11 1.38h-1.43c0.02-0.61 0.09-1.82 0.09-2.55zm1.67 11.49q0 0.36 0.07 0.66c0.4 1.56 1.12 1.84 1.6 1.84 1.37 0 1.85-1.84 1.85-4.11 0-2.14-0.5-4.01-1.89-4.01-0.79 0-1.43 0.97-1.58 1.9q-0.04 0.36-0.05 0.72z"/>
				<path id="&lt;Compound Path&gt;" class="s1" d="m194.29 404.18h1.69v15.22h-1.69z"/>
				<path id="&lt;Compound Path&gt;" fill-rule="evenodd" class="s1" d="m200.78 414.23c0 3.28 1.3 3.96 2.51 3.96 0.75 0 1.34-0.17 1.76-0.39l0.28 1.23c-0.59 0.31-1.49 0.5-2.35 0.5-2.55 0-3.87-2.09-3.87-5.34 0-3.44 1.47-5.59 3.61-5.59 2.15 0 3.03 2.29 3.03 4.66 0 0.42-0.02 0.71-0.04 0.97zm3.34-1.25c0.03-2.11-0.76-3.06-1.58-3.06-1.12 0-1.67 1.61-1.74 3.06z"/>
				<path id="&lt;Compound Path&gt;" class="s1" d="m215.3 406.27v2.48h2.05v1.28h-2.05v6.34c0 1.38 0.48 1.76 1.1 1.76q0.42 0 0.68-0.07l0.09 1.3c-0.31 0.11-0.7 0.17-1.25 0.17-0.69 0-1.28-0.17-1.68-0.63-0.44-0.49-0.63-1.21-0.63-2.69v-6.18h-1.3v-1.28h1.3v-1.8z"/>
				<path id="&lt;Compound Path&gt;" fill-rule="evenodd" class="s1" d="m226.3 414.08c0 4.11-1.89 5.5-3.54 5.5-1.92 0-3.46-1.74-3.46-5.48 0-3.87 1.74-5.5 3.57-5.5 1.91 0 3.43 1.78 3.43 5.48zm-5.3 0c0 1.76 0.31 4.16 1.85 4.16 1.45 0 1.76-2.49 1.76-4.16 0-1.63-0.31-4.14-1.81-4.14-1.52 0-1.8 2.51-1.8 4.14z"/>
				<path id="&lt;Compound Path&gt;" fill-rule="evenodd" class="s1" d="m240.25 404.18v12.67c0 0.73 0.06 1.94 0.09 2.55h-1.46l-0.1-1.32h-0.07c-0.35 0.75-1.1 1.5-2.25 1.5-1.78 0-3.08-1.94-3.08-5.46 0-3.76 1.57-5.52 3.19-5.52 0.8 0 1.55 0.35 1.96 1.25h0.05v-5.67zm-1.68 8.64c0-0.22 0-0.48-0.02-0.7-0.11-1.12-0.77-2.07-1.58-2.07-1.41 0-1.89 1.96-1.89 4.07 0 2.25 0.57 4.05 1.8 4.05 0.53 0 1.25-0.29 1.63-1.83q0.06-0.3 0.06-0.7z"/>
				<path id="&lt;Compound Path&gt;" fill-rule="evenodd" class="s1" d="m250.26 414.08c0 4.11-1.89 5.5-3.55 5.5-1.91 0-3.45-1.74-3.45-5.48 0-3.87 1.74-5.5 3.57-5.5 1.91 0 3.43 1.78 3.43 5.48zm-5.3 0c0 1.76 0.3 4.16 1.84 4.16 1.46 0 1.76-2.49 1.76-4.16 0-1.63-0.3-4.14-1.8-4.14-1.52 0-1.8 2.51-1.8 4.14z"/>
				<path id="&lt;Compound Path&gt;" class="s1" d="m253.95 408.75l1.04 5.22c0.22 1.14 0.44 2.29 0.57 3.39h0.09c0.15-1.1 0.41-2.34 0.66-3.35l1.23-5.26h1.3l1.16 5.11c0.27 1.19 0.51 2.31 0.69 3.5h0.08c0.14-1.13 0.33-2.23 0.58-3.44l1.01-5.17h1.69l-2.68 10.65h-1.39l-1.23-5.17c-0.26-1.03-0.42-1.98-0.59-3.19h-0.05c-0.17 1.25-0.37 2.25-0.61 3.26l-1.28 5.1h-1.43l-2.6-10.65z"/>
				<path id="&lt;Compound Path&gt;" class="s1" d="m266.65 411.5c0-1.25-0.07-1.89-0.09-2.75h1.47l0.09 1.3h0.05c0.46-0.86 1.32-1.45 2.44-1.45 1.47 0 2.57 1.08 2.57 3.65v7.15h-1.69v-6.84c0-1.28-0.24-2.53-1.48-2.53-0.7 0-1.38 0.59-1.58 1.72q-0.09 0.4-0.09 0.96v6.69h-1.69z"/>
				<path id="&lt;Compound Path&gt;" class="s1" d="m276.66 404.18h1.69v15.22h-1.69z"/>
				<path id="&lt;Compound Path&gt;" fill-rule="evenodd" class="s1" d="m288.49 414.08c0 4.11-1.89 5.5-3.54 5.5-1.91 0-3.45-1.74-3.45-5.48 0-3.87 1.74-5.5 3.56-5.5 1.92 0 3.43 1.78 3.43 5.48zm-5.3 0c0 1.76 0.31 4.16 1.85 4.16 1.45 0 1.76-2.49 1.76-4.16 0-1.63-0.31-4.14-1.8-4.14-1.52 0-1.81 2.51-1.81 4.14z"/>
				<path id="&lt;Compound Path&gt;" fill-rule="evenodd" class="s1" d="m297.1 416.98c0 0.82 0.02 1.74 0.11 2.42h-1.52l-0.11-1.12h-0.07c-0.46 0.81-1.21 1.3-2.13 1.3-1.41 0-2.51-1.19-2.51-3.04 0-2.68 2.13-3.85 4.53-3.87v-0.33c0-1.43-0.37-2.4-1.69-2.4q-1 0.01-1.76 0.55l-0.38-1.19c0.47-0.33 1.43-0.7 2.49-0.7 2.13 0 3.04 1.39 3.04 3.76zm-1.65-3.1c-0.89 0-2.93 0.17-2.93 2.49 0 1.4 0.7 1.89 1.3 1.89 0.74 0 1.36-0.55 1.56-1.61q0.07-0.31 0.07-0.61z"/>
				<path id="&lt;Compound Path&gt;" fill-rule="evenodd" class="s1" d="m307 404.18v12.67c0 0.73 0.06 1.94 0.08 2.55h-1.45l-0.11-1.32h-0.06c-0.36 0.75-1.1 1.5-2.25 1.5-1.78 0-3.08-1.94-3.08-5.46 0-3.76 1.56-5.52 3.19-5.52 0.79 0 1.54 0.35 1.96 1.25h0.04v-5.67zm-1.67 8.64c0-0.22 0-0.48-0.02-0.7-0.11-1.12-0.77-2.07-1.59-2.07-1.4 0-1.89 1.96-1.89 4.07 0 2.25 0.57 4.05 1.81 4.05 0.53 0 1.25-0.29 1.63-1.83q0.06-0.3 0.06-0.7z"/>
				<path id="&lt;Compound Path&gt;" class="s1" d="m315.38 419.4v-9.37h-1.34v-1.28h1.34v-0.64c0-1.16 0.17-2.33 0.94-3.21 0.62-0.68 1.48-0.9 2.14-0.9 0.57 0 1.01 0.11 1.32 0.26l-0.27 1.32c-0.22-0.08-0.5-0.17-0.94-0.17-1.21 0-1.5 1.3-1.5 2.66v0.68h1.94v1.28h-1.94v9.37z"/>
				<path id="&lt;Compound Path&gt;" fill-rule="evenodd" class="s1" d="m327.61 414.08c0 4.11-1.89 5.5-3.54 5.5-1.92 0-3.46-1.74-3.46-5.48 0-3.87 1.74-5.5 3.57-5.5 1.91 0 3.43 1.78 3.43 5.48zm-5.3 0c0 1.76 0.31 4.16 1.84 4.16 1.46 0 1.77-2.49 1.77-4.16 0-1.63-0.31-4.14-1.81-4.14-1.52 0-1.8 2.51-1.8 4.14z"/>
				<path id="&lt;Compound Path&gt;" class="s1" d="m330.58 411.5c0-0.9-0.07-1.96-0.09-2.75h1.52l0.09 1.7h0.04c0.35-1.02 1.25-1.85 2.24-1.85q0.2-0.01 0.36 0.02v1.72q-0.16 0-0.36 0c-1.07 0-1.86 0.99-2.04 2.2q-0.07 0.43-0.07 0.97v5.89h-1.69z"/>
				<path id="&lt;Compound Path&gt;" class="s1" d="m342.06 419.4v-9.37h-1.34v-1.28h1.34v-0.64c0-1.16 0.18-2.33 0.95-3.21 0.61-0.68 1.47-0.9 2.13-0.9 0.57 0 1.01 0.11 1.32 0.26l-0.26 1.32c-0.22-0.08-0.51-0.17-0.95-0.17-1.21 0-1.49 1.3-1.49 2.66v0.68h1.93v1.28h-1.93v9.37z"/>
				<path id="&lt;Compound Path&gt;" class="s1" d="m347.8 411.5c0-0.9-0.06-1.96-0.08-2.75h1.51l0.09 1.7h0.05c0.35-1.02 1.25-1.85 2.24-1.85q0.19-0.01 0.35 0.02v1.72q-0.16 0-0.35 0c-1.08 0-1.87 0.99-2.05 2.2q-0.06 0.43-0.06 0.97v5.89h-1.7z"/>
				<path id="&lt;Compound Path&gt;" fill-rule="evenodd" class="s1" d="m355.26 414.23c0 3.28 1.3 3.96 2.51 3.96 0.75 0 1.34-0.17 1.76-0.39l0.29 1.23c-0.6 0.31-1.5 0.5-2.36 0.5-2.55 0-3.87-2.09-3.87-5.34 0-3.44 1.47-5.59 3.61-5.59 2.16 0 3.03 2.29 3.03 4.66 0 0.42-0.02 0.71-0.04 0.97zm3.35-1.25c0.02-2.11-0.77-3.06-1.59-3.06-1.12 0-1.67 1.61-1.74 3.06z"/>
				<path id="&lt;Compound Path&gt;" fill-rule="evenodd" class="s1" d="m364.35 414.23c0 3.28 1.3 3.96 2.51 3.96 0.75 0 1.34-0.17 1.76-0.39l0.28 1.23c-0.59 0.31-1.49 0.5-2.35 0.5-2.55 0-3.87-2.09-3.87-5.34 0-3.44 1.47-5.59 3.61-5.59 2.15 0 3.03 2.29 3.03 4.66 0 0.42-0.02 0.71-0.04 0.97zm3.34-1.25c0.02-2.11-0.77-3.06-1.58-3.06-1.12 0-1.67 1.61-1.74 3.06z"/>
			</g>
		</g>
		<g id="&lt;Group&gt;">
			<path id="&lt;Compound Path&gt;" class="s2" d="m59.06 163.13l-8.43-15.13 32.89-19.06-10.24-10.22-38.3 31.27 30.88 30.13 48.1-3.84-32.96-14.39 17.81-10.52-32.27-2.98zm79.74-54.59l-13.94 28.25 17.23-10.17-4.92 38.13 27.86-39.72-11.54-42.32-45.11 16.4 4.11 14.12 33.35-18.68 8.04 14.62zm-62.74-44.14l-15.16 9.07 1.95 7.28-19.55 2.92 1.26 3.48 19.32-1.9 1.56 3.75-19.17 2.71 1.3 3.68 19.01-2.28 1.61 3.81-18.85 2.91 1.63 3.8 18.59-2.49 1.62 4.11-18.5 2.84 1.68 3.87 18.09-2.24 1.9 3.31 12.75-10.12 16.58-6.39-1.54-2.35 12.04-16.65-2.82-3.1-11.89 16.12-2.34-2.35 12.12-16.73-3.15-2.99-11.96 15.52-2.91-2.99 12.2-16.33-2.99-2.91-12.37 15.28-2.39-2.35 11.61-16.57-2.72-2.84-11.83 16.18zm14.03 41.21l-13.42 10.65 12.25 12.94 8.82-7.78 12.26-4.04-4.96-17.06zm33.4-65.16l7.9 24.69 4.21-32.42zm-59.92 5.13l14.65 1.93 7.82-12.36-7.03-9.22zm12.45 16.01l1.21-11.89-14.63-1.21-1.94 21.59zm5.72-37.18l6.36 8.84 15.73-4.97 2.26-8.41zm24.59 3.23l14.23 11.8 2.91-2.75-14.92-15.71z"/>
		</g>
	</g>
</svg>